<svg id="图层_1" data-name="图层 1" xmlns="http://www.w3.org/2000/svg" viewBox="0 0 400 449"><defs><style>.cls-1{fill:#00a0e8;}.cls-2,.cls-3{fill:#fff;}.cls-3{fill-rule:evenodd;}.cls-4{fill:#19a0e5;}</style></defs><rect class="cls-1" width="400" height="449"/><rect class="cls-2" x="84.37" y="114.77" width="231.27" height="231.27"/><path class="cls-2" d="M104.92,74.5a22.13,22.13,0,0,1-2.57,8.69,19,19,0,0,1-5.92,6.44c1.33.21,2.7.38,4.11.5s2.87.21,4.38.27v5a58.49,58.49,0,0,1-16.6-2,60.19,60.19,0,0,1-16.47,2v-5c1.48-.06,2.93-.15,4.34-.27s2.77-.29,4.08-.5a19.2,19.2,0,0,1-7.44-10.16h6.32a13.24,13.24,0,0,0,3.64,4.81,19.75,19.75,0,0,0,5.57,3.22A20.07,20.07,0,0,0,94.18,84a13.36,13.36,0,0,0,3.65-5.31H72V74.5H84.83V69.27H71.61v-4.2H84.83V61.73h7v3.34h13.22v4.2H91.8V74.5Z" transform="translate(0 0)"/><path class="cls-2" d="M111.58,95.32V76.14h-1.79l-1.05-5h1.79l4.4-9.43h6.7L116.52,72.9h1V95.34Zm30.71-29.43v4.42h-1.76v25h-9.17l-1.52-4.65h4.39V70.31H120V65.89h14.27V61.73h6.26v4.16Zm-15,8.53,2.4,8.08H132l-1.49,3.79h-5.81l-3.32-11.87Z" transform="translate(0 0)"/><path class="cls-2" d="M151.62,95.37l-.81-3.21-.14,2.89h-4.31l-.4-3.52h.91l.47-7.67h4l-.41,8h1.26V82.29H147V69.59h15.45V82.28h-4.63V95.37Zm11.53-31.29v4.2H146.24v-4.2h5.42V61.64h6.08v2.44Zm-6.59,14.58V73.38H152.5v5.28ZM159,95.05l-.57-11.19h4l.47,7.67h1l-.44,3.52Zm5.72.32-.47-3.52h.81L166.43,71h-2.16v-4.2h2.43l.34-5h5.58l-.34,5h7.14V71H172l-1.65,24.38Zm14.78-4.2-.88,4.2h-6.19V73.5h5.48V91.15Zm-5.75-25.46V62.64h5.54l-.81,3.07Z" transform="translate(0 0)"/><path class="cls-2" d="M197.07,95.14V85.71h-4.8v9.61h-7.61V89.91h1.19V62H215.5V95.32h-8.93L205.49,91h3.25V85.71h-4.9v9.43Zm-4.8-23.29h4.8v-5.6h-4.8Zm0,9.79h4.8V75.91h-4.8Zm16.47-15.39h-4.9v5.6h4.9Zm-4.9,15.39h4.9V75.91h-4.9Z" transform="translate(0 0)"/><path class="cls-2" d="M253.72,74.5a22.3,22.3,0,0,1-2.57,8.69,19,19,0,0,1-5.92,6.44c1.33.21,2.7.38,4.11.5s2.87.21,4.38.27v5a58.56,58.56,0,0,1-16.61-2,60.19,60.19,0,0,1-16.47,2v-5q2.24-.09,4.35-.27c1.41-.12,2.77-.29,4.07-.5a19.2,19.2,0,0,1-7.44-10.16H228a13.33,13.33,0,0,0,3.63,4.81,20.19,20.19,0,0,0,5.6,3.23A20.2,20.2,0,0,0,243,84a13.36,13.36,0,0,0,3.65-5.31H220.81V74.5h12.82V69.27H220.41v-4.2h13.22V61.73h7v3.34h13.22v4.2H240.6V74.5Z" transform="translate(0 0)"/><path class="cls-2" d="M260.36,95.32V76.14h-1.79l-1.05-5h1.84l4.4-9.43h6.69l-5.09,11.17h.94V95.32Zm30.71-29.43v4.42h-1.71v25h-9.13l-1.53-4.65h4.4V70.31H268.8V65.89h14.27V61.73h6.29v4.16ZM276,74.42l2.4,8.08h2.4l-1.46,3.79h-5.82l-3.31-11.87Z" transform="translate(0 0)"/><path class="cls-2" d="M314.89,61.64V63.9h13.47v7.77h-6.77V68H301.2v3.66h-6.53V63.9h13.46V61.64Zm13.36,11.52v4.28H314.76v4h12.68v4.33H314.76v5.06h3.35l-.67-3.75H324l.68,3.75h3.59v4.29H294.81V90.83h13.45V85.77H295.58V81.44h12.68v-4H294.81V73.16Z" transform="translate(0 0)"/><path class="cls-2" d="M105.81,390.17c1.38-.44,2.73-.88,4-1.33v-5.25h-3.68v-1.71h3.68v-4.31h1.8v4.31H115v1.71h-3.35v4.64l3.64-1.29a13.4,13.4,0,0,0,.18,1.79c-1.29.45-2.56.9-3.82,1.36v6.62c0,1.63-.78,2.44-2.34,2.44h-2.58q-.1-.94-.27-1.89a17.59,17.59,0,0,0,2.4.16c.67,0,1-.36,1-1.08v-5.59l-3.52,1.3Zm9.43-10.92h13V381h-3.88v15.21c0,1.9-.94,2.86-2.81,2.87h-3.91a13.76,13.76,0,0,0-.36-2c1.7.12,3,.18,3.8.18s1.39-.52,1.39-1.57V381h-7.21Z" transform="translate(0 0)"/><path class="cls-2" d="M128.05,387.27h5.86v-6.53H129V379h20.14v1.78H144.6v6.53h5.55v1.78H144.6v10.24h-1.84V389.05h-7a13.67,13.67,0,0,1-1.18,6.11c-.73,1.46-2.42,2.94-5,4.42A19.46,19.46,0,0,0,128.3,398a11.08,11.08,0,0,0,4.58-3.66c.67-1,1-2.79,1.09-5.3h-5.85Zm7.7,0h7v-6.53h-7Z" transform="translate(0 0)"/><path class="cls-2" d="M150.26,380.5h10.2v-3.23h1.84v3.23H172v1.64H162.3v3.36h6.33v1.56a20.13,20.13,0,0,1-5.72,7.46,28.1,28.1,0,0,0,9.43,2.82,19.94,19.94,0,0,0-1.28,2,27.38,27.38,0,0,1-9.85-3.59,36.66,36.66,0,0,1-10,3.92,9.06,9.06,0,0,0-1-1.77,35.84,35.84,0,0,0,9.54-3.29,18.26,18.26,0,0,1-5-7.42h-2.29V385.5h8v-3.32h-10.2Zm16.2,6.61h-9.88a14.7,14.7,0,0,0,4.78,6.39,16.05,16.05,0,0,0,5.1-6.38Z" transform="translate(0 0)"/><path class="cls-2" d="M172.09,388a37.56,37.56,0,0,0,5.13-10.72l1.84.7q-.93,2.5-1.91,4.66v16.7h-1.79V386.25a31.79,31.79,0,0,1-2.56,3.92A14.38,14.38,0,0,0,172.09,388Zm6.54-5.6h10.29V377.5h1.82v4.92H194v1.71h-3.25V395.5q0,3.5-3.17,3.54H184.2a19.58,19.58,0,0,0-.36-2q2.16.18,3.33.18a1.66,1.66,0,0,0,1.39-.45,3,3,0,0,0,.36-1.77V384.15H178.63Zm1.46,5.26,1.51-.94q1.36,2,3.21,5.18l-1.62,1a43.72,43.72,0,0,0-3.1-5.24Z" transform="translate(0 0)"/><path class="cls-2" d="M194.42,396.5h9.94v-5.12h-8v-1.66h8v-3.28h-8.85v-1.66H215.1v1.66h-8.84v3.28h8.1v1.66h-8.1v5.12h10v1.69H194.42Zm.72-16.17h9.8a26.16,26.16,0,0,0-1.35-2.36l1.64-.76a22.63,22.63,0,0,1,1.63,2.6l-1,.52h9.65v3.78h-1.82V382H197v2.09h-1.82Zm13.77,12.6,1.32-1a26.86,26.86,0,0,1,2.74,3l-1.46,1.12A33.58,33.58,0,0,0,208.91,392.93Z" transform="translate(0 0)"/><path class="cls-2" d="M223,400.4h-4.6V379.05H223v1.56h-2.66v18.24H223Z" transform="translate(0 0)"/><path class="cls-2" d="M223.22,381.28h2.58V377.5h3v3.78h2.45v2.92H228.8v3.3l2.42-.65v2.87l-2.47.73v6a2.65,2.65,0,0,1-.83,2.24c-.56.42-1.87.65-3.93.68-.24-1.06-.51-2.08-.81-3q.78.06,1.86.06c.48,0,.72-.36.72-1.1V391.4l-2.31.72L223,389l2.78-.7v-4.1h-2.58Zm9,5.86H241v-5.08h-9.26v-2.87h12.36v20.23H241v-1.21H230.77v-2.87H241V390h-8.76Z" transform="translate(0 0)"/><path class="cls-2" d="M245.43,386.69h21.7V390h-21.7Z" transform="translate(0 0)"/><path class="cls-2" d="M267.36,381.28h2.58V377.5h3v3.78h2.42v2.92h-2.45v3.3l2.42-.65c0,1,0,2,.05,2.87l-2.47.73v6a2.65,2.65,0,0,1-.83,2.24c-.56.42-1.87.65-3.93.68-.24-1.06-.51-2.08-.81-3q.78.06,1.86.06c.48,0,.72-.36.72-1.1V391.4l-2.31.72-.47-3.1,2.78-.7v-4.1h-2.56Zm9,5.86h8.76v-5.08h-9.26v-2.87h12.36v20.23h-3.1v-1.21H274.93v-2.87h10.24V390h-8.76Z" transform="translate(0 0)"/><path class="cls-2" d="M294.19,400.4h-4.61v-1.55h2.67V380.61h-2.67v-1.56h4.61Z" transform="translate(0 0)"/><path class="cls-3" d="M200,205.41a24,24,0,1,1-24,24A24,24,0,0,1,200,205.41Z" transform="translate(0 0)"/><path class="cls-4" d="M187.69,236.33a4.15,4.15,0,0,1,3.39-4.27c4.27-.72,10.15,2.85,10.15,2.85-2.67,3.38-6.41,5.16-9.26,5.16C189.47,239.9,187.69,238.5,187.69,236.33ZM218,237.76c-.54-.18-12.65-3.92-12.29-4.28,1.78-2.14,3-7.12,3-7.12v-1.07h-7.12v-2.68h8.79V221h-8.73v-3.92h-3.57v3.74h-7.83v1.61h7.83v2.67h-6.23v1.07h12.83a21.6,21.6,0,0,1-1.79,5.7c-.17-.36-5.87-2.32-9.08-2.5-3.39.18-6.06,1.25-7.31,3.75-1.78,4.63,1.07,9.26,7.49,9.26a13.51,13.51,0,0,0,10.11-5.89c1.07.53,7.13,3.56,10.87,5.52a19.29,19.29,0,0,1-15,7,19.53,19.53,0,0,1-19.59-19.47v-.17a19.53,19.53,0,0,1,19.47-19.59H200a19.54,19.54,0,0,1,19.6,19.48h0v.11a18.05,18.05,0,0,1-1.6,8.38Z" transform="translate(0 0)"/></svg>