<svg id="图层_1" data-name="图层 1" xmlns="http://www.w3.org/2000/svg" viewBox="0 0 400 449"><defs><style>.cls-1,.cls-4{fill:#22ac38;}.cls-2,.cls-3{fill:#fff;}.cls-3,.cls-4{fill-rule:evenodd;}</style></defs><rect class="cls-1" width="400" height="449"/><path class="cls-2" d="M107.44,388.33a36.47,36.47,0,0,0,4.68-10.9l1.66.49a58.44,58.44,0,0,1-2,5.61v16.05h-1.6V386.84a28.16,28.16,0,0,1-2,3.28C107.89,389.5,107.67,388.89,107.44,388.33Zm7.82,3.72,1.51-.83a10.8,10.8,0,0,0,2.59,3,8.34,8.34,0,0,0,1.11-3.74h-5.86V384.3h6.06v-2.22h-7.18v-1.53h7.18v-3h1.69v3h7.26v1.53h-7.26v2.22h6v7.2H126.7v-1h-4.53a11.18,11.18,0,0,1-1.36,4.72h0a20.08,20.08,0,0,0,9,2.37c-.45.65-.86,1.27-1.24,1.87a21.47,21.47,0,0,1-9-2.92,17.81,17.81,0,0,1-5.77,3.1c-.35-.48-.74-1-1.17-1.51a16.77,16.77,0,0,0,5.48-2.65,13.4,13.4,0,0,1-2.85-3.43Zm5.35-3.07c0-.72.06-1.77.06-3.17h-4.31V389Zm1.73,0h4.4v-3.17h-4.38V389Z" transform="translate(0 0)"/><path class="cls-2" d="M140.28,399.17V392h-6.53a14.46,14.46,0,0,1-2.72,7.75c-.39-.49-.83-1-1.33-1.55a11.9,11.9,0,0,0,2-4.58,36.87,36.87,0,0,0,.49-6.88v-8H150.5v17.85c0,1.78-.85,2.68-2.54,2.68-1,0-2.19,0-3.48-.07-.07-.5-.19-1.12-.34-1.87,1.31.09,2.36.14,3.17.14a1.25,1.25,0,0,0,1.39-1.33V392h-6.6v7.14Zm-6.41-8.76h6.41v-4.2H134A36.81,36.81,0,0,1,133.87,390.41Zm.1-10v4.18h6.31v-4.18Zm14.71,0h-6.6v4.18h6.6Zm-6.6,10h6.6v-4.2h-6.6Z" transform="translate(0 0)"/><path class="cls-2" d="M151.56,390.68a28,28,0,0,0,4.31-7l1.48.69c-.55,1.17-1.13,2.27-1.73,3.28V399.5H154.1v-9.44a23.49,23.49,0,0,1-2,2.45A16.06,16.06,0,0,0,151.56,390.68Zm.11-7.23a21.77,21.77,0,0,0,4.25-5.86l1.39.78a26.44,26.44,0,0,1-5.1,6.83c-.16-.58-.34-1.17-.54-1.7Zm11.3,8.74h-3v1c0,2.7-.75,4.61-2.26,5.75a16,16,0,0,0-1-1.44c1.18-.78,1.77-2.27,1.77-4.49v-2.38h6v3.91c.69-.6,1.48-1.3,2.36-2.11.14.66.27,1.23.38,1.73-.82.66-1.75,1.46-2.8,2.42l-.9.9-1.16-1.41a2.14,2.14,0,0,0,.61-1.61ZM157.78,385V379.5h1.44v4h1.84v-5.71h1.48v5.71h1.82v-4h1.44v6.24h-1.44V385Zm.45,2h7.13v1.57h-7.14Zm10.2-9.54,1.53.27c-.24,1.38-.53,2.7-.85,3.95H174v1.62h-1.08a30.45,30.45,0,0,1-2.16,10.18,13.79,13.79,0,0,0,3.38,4.28c-.33.58-.65,1.16-1,1.73a17.31,17.31,0,0,1-3.29-4.36,22.09,22.09,0,0,1-3.47,4.52,16.81,16.81,0,0,0-1.1-1.42,18.46,18.46,0,0,0,3.78-4.83,22.75,22.75,0,0,1-1.53-7c-.24.57-.49,1.13-.76,1.67a10,10,0,0,0-1.08-1.17,29.34,29.34,0,0,0,2.79-9.42Zm2.92,5.84h-2.7l-.07.21a24,24,0,0,0,1.3,8.06,35.2,35.2,0,0,0,1.48-8.27Z" transform="translate(0 0)"/><path class="cls-2" d="M173.64,388.26a37,37,0,0,0,5-10.83l1.76.49a55.32,55.32,0,0,1-2.14,5.58v16.1h-1.7V386.79a31.67,31.67,0,0,1-2.2,3.31C174.14,389.5,173.89,388.86,173.64,388.26Zm6.49-7.8h7.33c-.44-.77-.91-1.53-1.4-2.29l1.51-.78c.53.8,1.07,1.66,1.59,2.56l-1,.51h7.76V382H180.13Zm1.24,3.66h13.25v1.53H181.36Zm0,3.62h13.25v1.53H181.36Zm.24,3.64h12.75v8.22h-1.7v-1.35h-9.3v1.35h-1.73Zm11,1.53h-9.3v3.82h9.32Z" transform="translate(0 0)"/><path class="cls-2" d="M205.84,401.35h-5.59v-26h5.59v1.9H202.6V399.5h3.24Z" transform="translate(0 0)"/><path class="cls-2" d="M206.16,378.06h3.14V373.5h3.64v4.59h3v3.56h-3v4l2.95-.8c0,1.22,0,2.39.05,3.5l-3,.89v7.32a3.26,3.26,0,0,1-1,2.72c-.68.52-2.27.79-4.79.83-.29-1.29-.62-2.53-1-3.72.63.06,1.39.08,2.27.08.58,0,.87-.44.87-1.34v-4.78l-2.82.87-.57-3.77,3.39-.85v-5h-3.13Zm11,7.14h10.66V379H216.55V375.5h15v24.64h-3.78v-1.48H215.36v-3.5h12.47V388.7H217.15Z" transform="translate(0 0)"/><path class="cls-2" d="M233.2,384.65h26.41v4.05H233.2Z" transform="translate(0 0)"/><path class="cls-2" d="M259.92,378.06h3.14V373.5h3.64v4.59h3v3.56h-3v4l3-.8v3.5l-3,.89v7.32a3.26,3.26,0,0,1-1,2.72c-.68.52-2.27.79-4.79.83-.29-1.29-.62-2.53-1-3.72.63.06,1.39.08,2.27.08.58,0,.87-.44.87-1.34v-4.78l-2.82.87-.57-3.77,3.39-.85v-5h-3.14Zm11,7.14h10.66V379H270.36V375.5h15v24.64h-3.78v-1.48H269.1v-3.5h12.47V388.7H270.91Z" transform="translate(0 0)"/><path class="cls-2" d="M292.55,401.35H287V399.5h3.25V377.3H287v-1.9h5.6Z" transform="translate(0 0)"/><rect class="cls-2" x="84.37" y="113.49" width="231.27" height="231.27"/><path class="cls-2" d="M72.05,69.81h3.73v2.06H72.05v6.44c1.21-.36,2.36-.75,3.31-1l.26,2-3.57,1.08v9c0,2.52-.81,3.14-3.59,3.14H66l-.42-2h2.38c1.64,0,2-.3,2-1.8V81c-1.8.53-3.46,1.08-4.58,1.41l-.45-2.06c1.3-.33,3.13-.85,5-1.44V71.87H65.68V69.81H69.9V64.12H72Zm7.1,21v2.55h-2V74.19a28.35,28.35,0,0,1-1.83,2.65l-1.5-1.54a29.09,29.09,0,0,0,5.43-11.51l2.09.39a41.19,41.19,0,0,1-1.67,5.07h8l-3.11-4.51,1.6-1c.82,1.12,2.56,3.5,3.31,4.62L88,69.27h6.8v1.9h-7v4.54h6.37v1.87H87.78v4.51h6.37V84H87.78v4.94h7.45v1.89Zm0-15.11h6.61V71.16H79.15Zm0,6.38h6.61V77.57H79.15Zm0,6.84h6.61V84H79.15Z" transform="translate(0 0)"/><path class="cls-2" d="M111.72,72.68h17.43v1.9H110.68a33.89,33.89,0,0,1-3.34,4.64V93.35h-2v-12a40.36,40.36,0,0,1-4.94,4l-.91-2a30.38,30.38,0,0,0,8.76-8.7h-7.81v-1.9h9a28.27,28.27,0,0,0,1.4-2.94l2.13.46C112.51,71.08,112.11,71.9,111.72,72.68ZM119,68.6h-8.8v2.29h-2.06V68.6h-8.07V66.7h8.07V64h2.06V66.7H119V64h2V66.7h8v1.9h-8V71h-2Zm8.15,8.92v1.67l-6.58,4v.56h9v1.83h-9v3.79c0,2.78-.68,3.57-4,3.57h-3.63l-.39-1.9h3.34c2.09,0,2.64-.49,2.64-2.12V85.58h-9.15V83.75h9.15V82.38l4.94-3H111.13V77.5Z" transform="translate(0 0)"/><path class="cls-2" d="M137.75,75.92a46,46,0,0,1-3,4.81l-1.24-1.83c2.65-3.63,5-9.06,6.67-14.72l2,.49a59.51,59.51,0,0,1-2.39,7V93.5h-2Zm16.06-7.72h9.48v1.9h-9.48v3.57h7.91v8.14h-7.91A11,11,0,0,1,152.27,88a38.47,38.47,0,0,0,11.81,2.82l-.56,2.09c-5.36-.69-9.42-1.73-12.62-3.37-1.8,1.57-4.61,2.75-8.87,3.89l-1-2c3.8-1,6.28-1.93,7.88-3.11a17.78,17.78,0,0,1-4.93-5l1.47-1.18a16,16,0,0,0,4.94,4.75,8.37,8.37,0,0,0,1.37-5.17h-8V73.6h8V70.1h-9.3V68.2h9.32V64.12h2Zm-8,11.71h6V75.5h-6Zm8-4.38v4.38h5.92V75.5Z" transform="translate(0 0)"/><path class="cls-2" d="M190.83,90.64c2.09,0,2.45-.43,2.45-2.16V83.87h-8.67v9h-2.09v-9h-8.73a20.07,20.07,0,0,1-3.37,9.84l-2-1c2.91-4.45,3.34-6.48,3.34-13.67V66.11h23.6V89.17c0,2.78-.88,3.6-3.89,3.6h-3.66l-.39-2.13Zm-17-8.86h8.64v-5.6h-8.6v3.6a14.89,14.89,0,0,1,0,2Zm0-7.69h8.6V68.2h-8.6Zm10.69-5.89v5.89h8.67V68.2Zm0,13.58h8.67v-5.6h-8.67Z" transform="translate(0 0)"/><path class="cls-2" d="M210,79.5V76.16h10.53l-.29-.46.55-1H210.36v-.22c-.52,1-1.14,2.15-1.83,3.3V91.1c2.09-2,2.52-3.27,2.52-6.45V80.93h9v4.41l1.57-1.44.66,3.34a35.8,35.8,0,0,0-4.12,3.66l-2-2a1.74,1.74,0,0,0,.56-1.44V84.25h-2.35v1.11c0,3.14-.56,4.91-3.08,7.85l-2.81-1.67V93h-3.3V82.5c-.53.69-1.08,1.34-1.57,1.93l-1.54-3.7A40.53,40.53,0,0,0,207.53,72l2.78,1.11V67.16a57.29,57.29,0,0,1-5.4,7.55l-2.55-2.45a41.31,41.31,0,0,0,5.4-7.72l3,1.8-.26.49h2.94v4.58h.92v-7h3.1v7h.95V66.83h3.11v6.08a44.29,44.29,0,0,0,2.55-8.43l3.3.39a38.56,38.56,0,0,1-1,4.38h6v3.53h-1.21c-.46,5.1-1.27,8.87-2.78,12.17a26.69,26.69,0,0,0,4.81,6.18l-2.65,2.55a39.87,39.87,0,0,1-4-5.36,39.74,39.74,0,0,1-4.91,5.85l-2.65-2.62a25.11,25.11,0,0,0,5.69-6.83,31.9,31.9,0,0,1-2-6.7l-.43.75-1-1.6V79.5Zm15-6.22a30.32,30.32,0,0,0,1.47,7.36,34.77,34.77,0,0,0,1.57-7.82h-2.85Z" transform="translate(0 0)"/><path class="cls-2" d="M245.83,67.39h8.27l-1.24-2.29,3.89-1.18c.39.79,1.18,2.26,1.83,3.47h7.92v3.66H245.66V67.88c-.49,1.44-1,2.78-1.5,4.09V93.12h-3.8V79c-.49.72-1,1.44-1.57,2.16l-2.43-3.41a43.62,43.62,0,0,0,6.35-13.5l3.79,1.08Zm.91,14.45h17.93V93.06h-3.9V91.91H250.64v1.15h-3.9Zm.69-6.08V72.42H264v3.34Zm0,4.74V77.13H264V80.5Zm3.21,8h10.13V85.31H250.64Z" transform="translate(0 0)"/><path class="cls-2" d="M284.09,74.5V71.66H272V67.8h12.1V64.3h4.27v3.5h12v3.86h-12V74.5h8.34v3.8a26.91,26.91,0,0,1-6.87,8.21,43.41,43.41,0,0,0,11,3.56l-1.18,4.22A46.77,46.77,0,0,1,286,89a72.66,72.66,0,0,1-13.27,5.2L271.3,90a66.8,66.8,0,0,0,11-3.79,32.62,32.62,0,0,1-5.72-7.2l1.08-.68h-3.11V74.5ZM286,84.18a18.37,18.37,0,0,0,5.79-5.88h-11A20.42,20.42,0,0,0,286,84.16Z" transform="translate(0 0)"/><path class="cls-2" d="M309.56,79.09c-.65.92-1.34,1.84-2.06,2.75l-2.62-3.6a46.53,46.53,0,0,0,7.23-13.9l4.06,1.09c-.82,2.32-1.67,4.44-2.55,6.44V92.93h-4.06Zm21.13-8.89h4.38v3.92h-4.38V88.94c0,3.37-1.34,4.48-5.1,4.48h-4.23l-.78-4.06h4c1.89,0,2.06-.39,2.06-1.66V74.12H314.73V70.2h11.84V64.74h4.12Zm-14.78,7.23,3.27-2.16c1.27,1.7,4,5.59,5.23,7.49L321,85.05c-1.24-2-3.86-5.79-5.13-7.62Z" transform="translate(0 0)"/><path class="cls-3" d="M200,205.15a24,24,0,1,1-24,24A24,24,0,0,1,200,205.15Z" transform="translate(0 0)"/><path class="cls-4" d="M200,209.5a19.62,19.62,0,1,0,19.61,19.63v0A19.61,19.61,0,0,0,200,209.5Zm9.8,20.16h-7.35v2.45h7.35v3.81h-7.35v4.91h-4.9v-4.91h-7.36v-3.81h7.36v-2.45h-7.36v-3.82h5.72l-4.36-6.54,3.27-2.18,5.18,7.53,5.17-7.53,3.27,2.18-4.36,6.54h5.72Z" transform="translate(0 0)"/></svg>