<svg id="图层_1" data-name="图层 1" xmlns="http://www.w3.org/2000/svg" viewBox="0 0 42.66 42.66" width="45" height="45"><defs><style>.cls-1,.cls-2,.cls-3,.cls-4{fill:none;}.cls-1,.cls-2{stroke:#034eff;}.cls-1,.cls-3{stroke-linecap:round;}.cls-1,.cls-2,.cls-3{stroke-linejoin:round;stroke-width:4px;}.cls-3{stroke:#19a800;}</style></defs><path class="cls-1" d="M41.4,11.55,36.33,5H11.67L6.58,11.55" transform="translate(-2.66 -2.67)"/><path class="cls-2" d="M6,13a2,2,0,0,1,2-2H40a2,2,0,0,1,2,2V40a3,3,0,0,1-3,3H9a3,3,0,0,1-3-3Z" transform="translate(-2.66 -2.67)"/><path class="cls-3" d="M32,27l-8,8-8-8" transform="translate(-2.66 -2.67)"/><path class="cls-3" d="M24,19V35" transform="translate(-2.66 -2.67)"/><rect class="cls-4" width="42.66" height="42.66"/></svg>